<?xml version="1.0" encoding="utf-8"?>
<!-- Generator: Adobe Illustrator 19.1.1, SVG Export Plug-In . SVG Version: 6.00 Build 0)  -->
<svg version="1.1" id="Layer_1" xmlns="http://www.w3.org/2000/svg" xmlns:xlink="http://www.w3.org/1999/xlink" x="0px" y="0px"
	 viewBox="-551 337 120 120" style="enable-background:new -551 337 120 120;" xml:space="preserve">
<style type="text/css">
	.st0{fill:#1E1E1E;}
	.st1{fill:#FFFFFF;}
	.st2{fill:#00AEEF;}
	.st3{fill:#596877;}
</style>
<g id="Layer_2">
	<circle class="st0" cx="-491" cy="397" r="60"/>
	<g>
		<g>
			<path class="st1" d="M-503.9,391.9h-1.5v-5h-4.6v5h-1.5V381h1.5v4.6h4.6V381h1.5V391.9z"/>
			<path class="st1" d="M-494.4,382.3h-3.2v9.6h-1.5v-9.6h-3.2V381h7.9V382.3z"/>
			<path class="st1" d="M-484.7,391.9h-1.4l-0.2-6.8l-0.1-2.6l-0.6,1.5l-1.6,4.3h-1l-1.5-4.2l-0.5-1.7v2.7l-0.2,6.6h-1.4l0.5-10.7
				h1.7l1.5,4.1l0.5,1.4l0.5-1.4l1.5-4.1h1.8L-484.7,391.9z"/>
			<path class="st1" d="M-476.2,391.9h-6.2V381h1.5v9.6h4.7V391.9z"/>
			<path class="st1" d="M-503.7,399.3h-3.3v9.6h-1.5v-9.6h-3.2V398h7.9L-503.7,399.3L-503.7,399.3z"/>
			<path class="st1" d="M-496.3,408.9v-1.1c-0.5,0.4-0.9,0.8-1.4,1c-0.5,0.2-1,0.3-1.5,0.3s-0.9-0.1-1.2-0.2
				c-0.3-0.1-0.6-0.3-0.8-0.5c-0.2-0.2-0.4-0.5-0.5-0.8c-0.1-0.3-0.2-0.6-0.2-0.9c0-0.8,0.3-1.5,0.9-2s1.5-0.7,2.8-0.7h1.7v-0.7
				c0-0.5-0.2-0.9-0.5-1.2c-0.3-0.3-0.8-0.4-1.4-0.4c-0.5,0-0.9,0.1-1.4,0.2c-0.5,0.1-0.9,0.3-1.4,0.4V401c0.2-0.1,0.4-0.1,0.6-0.2
				c0.2-0.1,0.5-0.1,0.7-0.2c0.2-0.1,0.5-0.1,0.8-0.1s0.5,0,0.8,0c0.5,0,1,0.1,1.4,0.2c0.4,0.1,0.7,0.3,1,0.5
				c0.3,0.2,0.5,0.5,0.6,0.9c0.1,0.3,0.2,0.7,0.2,1.2v5.7h-1.2V408.9z M-496.5,405.1h-1.8c-0.4,0-0.7,0-0.9,0.1
				c-0.3,0.1-0.5,0.2-0.6,0.3c-0.1,0.1-0.3,0.3-0.4,0.5c-0.1,0.2-0.1,0.4-0.1,0.6c0,0.2,0,0.3,0.1,0.5c0.1,0.2,0.1,0.3,0.2,0.4
				s0.3,0.2,0.4,0.3c0.1,0.1,0.4,0.1,0.6,0.1c0.3,0,0.7-0.1,1.1-0.3c0.4-0.2,0.9-0.5,1.4-1V405.1z"/>
			<path class="st1" d="M-486.4,401.7c0.2,0.2,0.3,0.4,0.4,0.7c0.1,0.3,0.1,0.5,0.1,0.8c0,0.4-0.1,0.8-0.2,1.2
				c-0.2,0.4-0.4,0.7-0.7,0.9c-0.3,0.3-0.6,0.5-1,0.6c-0.4,0.1-0.8,0.2-1.3,0.2c-0.3,0-0.7,0-1-0.1c-0.3-0.1-0.5-0.2-0.7-0.3
				c-0.1,0.2-0.2,0.3-0.3,0.4c-0.1,0.1-0.1,0.3-0.1,0.5c0,0.2,0.1,0.4,0.3,0.5c0.2,0.1,0.5,0.2,0.8,0.2l2.2,0.1
				c0.4,0,0.8,0.1,1.1,0.2c0.4,0.1,0.7,0.2,0.9,0.4c0.3,0.2,0.4,0.4,0.6,0.7c0.1,0.3,0.2,0.6,0.2,0.9c0,0.4-0.1,0.7-0.2,1.1
				c-0.2,0.3-0.4,0.6-0.7,0.9c-0.3,0.3-0.8,0.5-1.3,0.6c-0.5,0.2-1.1,0.2-1.8,0.2c-0.7,0-1.2-0.1-1.7-0.2s-0.9-0.3-1.2-0.4
				c-0.3-0.2-0.5-0.4-0.7-0.7c-0.2-0.3-0.2-0.6-0.2-0.9c0-0.4,0.1-0.8,0.3-1.1c0.2-0.3,0.5-0.6,0.9-0.9c-0.1-0.1-0.3-0.1-0.4-0.2
				c-0.1-0.1-0.2-0.2-0.3-0.3s-0.1-0.2-0.1-0.4s0-0.3,0-0.4c0-0.4,0.1-0.7,0.3-1c0.2-0.3,0.4-0.6,0.6-0.8c-0.1-0.1-0.2-0.3-0.3-0.4
				s-0.1-0.3-0.2-0.4c-0.1-0.1-0.1-0.3-0.1-0.5c0-0.2,0-0.3,0-0.6c0-0.4,0.1-0.8,0.2-1.2c0.2-0.4,0.4-0.7,0.7-0.9
				c0.3-0.3,0.6-0.5,1-0.6s0.8-0.2,1.3-0.2c0.2,0,0.4,0,0.6,0c0.2,0,0.4,0.1,0.5,0.1h3v1.2h-1.5V401.7z M-491.4,410.1
				c0,0.4,0.2,0.7,0.6,0.9c0.4,0.2,1,0.3,1.7,0.3c0.5,0,0.8,0,1.2-0.1c0.4-0.1,0.6-0.2,0.8-0.3c0.2-0.1,0.3-0.3,0.4-0.5
				c0.1-0.2,0.1-0.4,0.1-0.5c0-0.3-0.1-0.6-0.4-0.7c-0.3-0.2-0.7-0.3-1.3-0.3l-2.2-0.1c-0.2,0.1-0.3,0.2-0.5,0.4
				c-0.1,0.1-0.2,0.2-0.3,0.4c-0.1,0.2-0.1,0.2-0.1,0.4S-491.4,410-491.4,410.1z M-490.9,403.3c0,0.3,0,0.5,0.1,0.7
				c0.1,0.2,0.2,0.4,0.4,0.6c0.2,0.2,0.4,0.3,0.6,0.4c0.2,0.1,0.5,0.1,0.7,0.1c0.3,0,0.5,0,0.8-0.1c0.2-0.1,0.4-0.2,0.6-0.4
				c0.2-0.2,0.3-0.4,0.3-0.6c0.1-0.2,0.1-0.4,0.1-0.7c0-0.3,0-0.5-0.1-0.7c-0.1-0.2-0.2-0.4-0.4-0.6c-0.2-0.2-0.3-0.3-0.6-0.4
				c-0.2-0.1-0.5-0.1-0.7-0.1c-0.3,0-0.5,0-0.8,0.1c-0.2,0.1-0.4,0.2-0.6,0.4c-0.2,0.2-0.3,0.4-0.3,0.6
				C-490.9,402.8-490.9,403-490.9,403.3z"/>
			<path class="st1" d="M-475.4,398l-0.7,10.8h-1.9l-1.4-3.8l-0.4-1.2l-0.4,1.3l-1.2,3.8h-1.9L-484,398h1.4l0.4,7.4l0.1,2l0.5-1.7
				l1.3-4h1l1.5,4.3l0.5,1.4v-1.5l0.4-7.9C-476.9,398-475.4,398-475.4,398z"/>
			<path class="st1" d="M-473.3,400.5h1.3v1.5c0.5-0.6,1-1,1.5-1.3c0.5-0.3,1-0.4,1.4-0.4c0.9,0,1.5,0.3,2,0.8
				c0.4,0.6,0.7,1.4,0.6,2.5h-1.5c0-0.7-0.1-1.3-0.3-1.6c-0.2-0.3-0.6-0.5-1-0.5c-0.2,0-0.4,0-0.6,0.1c-0.2,0.1-0.4,0.2-0.6,0.3
				c-0.2,0.2-0.4,0.3-0.7,0.6c-0.2,0.2-0.5,0.5-0.7,0.9v5.4h-1.5v-8.3H-473.3z"/>
			<path class="st1" d="M-459,408.9v-1.1c-0.5,0.4-0.9,0.8-1.4,1c-0.5,0.2-1,0.3-1.5,0.3s-0.9-0.1-1.2-0.2c-0.3-0.1-0.6-0.3-0.8-0.5
				c-0.2-0.2-0.4-0.5-0.5-0.8s-0.2-0.6-0.2-0.9c0-0.8,0.3-1.5,0.9-2c0.6-0.5,1.5-0.7,2.8-0.7h1.7v-0.7c0-0.5-0.2-0.9-0.5-1.2
				c-0.3-0.3-0.8-0.4-1.4-0.4c-0.5,0-0.9,0.1-1.4,0.2c-0.5,0.1-0.9,0.3-1.4,0.4V401c0.2-0.1,0.4-0.1,0.6-0.2
				c0.2-0.1,0.5-0.1,0.7-0.2s0.5-0.1,0.8-0.1c0.3,0,0.5,0,0.8,0c0.5,0,1,0.1,1.4,0.2s0.7,0.3,1,0.5c0.3,0.2,0.5,0.5,0.6,0.9
				c0.1,0.3,0.2,0.7,0.2,1.2v5.7h-1.2V408.9z M-459.1,405.1h-1.9c-0.4,0-0.7,0-0.9,0.1c-0.3,0.1-0.5,0.2-0.6,0.3s-0.3,0.3-0.4,0.5
				s-0.1,0.4-0.1,0.6c0,0.2,0,0.3,0.1,0.5c0.1,0.2,0.1,0.3,0.2,0.4c0.1,0.1,0.3,0.2,0.4,0.3c0.2,0.1,0.4,0.1,0.6,0.1
				c0.3,0,0.7-0.1,1.1-0.3c0.4-0.2,0.9-0.5,1.4-1v-1.5H-459.1z"/>
			<path class="st1" d="M-447.8,404.6c0,0.7-0.1,1.4-0.3,1.9c-0.2,0.6-0.5,1-0.9,1.4c-0.4,0.4-0.8,0.6-1.3,0.8
				c-0.5,0.2-1,0.3-1.6,0.3c-0.3,0-0.5,0-0.8,0s-0.5-0.1-0.8-0.1v3.5h-1.5v-11.9h1.3l0.1,1.4c0.4-0.6,0.9-1,1.3-1.2
				c0.4-0.2,1-0.3,1.5-0.3s0.9,0.1,1.3,0.3c0.4,0.2,0.7,0.5,0.9,0.8c0.2,0.3,0.4,0.8,0.5,1.3C-448,403.3-447.8,403.9-447.8,404.6z
				 M-449.3,404.6c0-0.4,0-0.8-0.1-1.2s-0.2-0.7-0.3-0.9c-0.1-0.3-0.3-0.5-0.5-0.6c-0.2-0.1-0.5-0.2-0.8-0.2c-0.2,0-0.4,0-0.6,0.1
				c-0.2,0.1-0.4,0.2-0.6,0.3c-0.2,0.1-0.4,0.3-0.6,0.5c-0.2,0.2-0.5,0.5-0.7,0.8v4c0.3,0.1,0.5,0.2,0.8,0.3
				c0.3,0.1,0.6,0.1,0.9,0.1c0.8,0,1.4-0.3,1.8-0.8C-449.6,406.5-449.3,405.7-449.3,404.6z"/>
		</g>
		<g>
			<g>
				<g>
					<path class="st2" d="M-517.9,372.8l-7.9-3.6v-1.4l7.9-3.8v2l-5.7,2.4v0.1l5.7,2.3V372.8z"/>
				</g>
				<g>
					<path class="st2" d="M-496,369l-7.9,3.6v-2l5.7-2.3l0,0l-5.7-2.4v-2l7.9,3.8V369z"/>
				</g>
			</g>
			<g>
				<g>
					<rect x="-515.7" y="361.4" class="st3" width="8.8" height="14.1"/>
				</g>
			</g>
		</g>
		<g>
			<g>
				<g>
					<path class="st2" d="M-517.9,429l-7.9-3.6V424l7.9-3.8v2l-5.7,2.4v0.1l5.7,2.3V429z"/>
				</g>
				<g>
					<path class="st2" d="M-508.8,417.3l-5.9,14.2h-2.4l5.9-14.2H-508.8z"/>
				</g>
				<g>
					<path class="st2" d="M-488.5,425.2l-7.9,3.6v-2l5.7-2.3l0,0l-5.7-2.4v-2l7.9,3.8V425.2z"/>
				</g>
			</g>
			<g>
				<g>
					<rect x="-507.5" y="417" class="st3" width="8.8" height="14.1"/>
				</g>
			</g>
		</g>
	</g>
</g>
</svg>
